# AST/ASF file generated using VICON BodyLanguage
# -----------------------------------------------
:version 1.10
:name VICON
:units
  mass 1.0
  length 0.45
  angle deg
:documentation
   .ast/.asf automatically generated from VICON data using
   VICON BodyBuilder and BodyLanguage model FoxedUp or BRILLIANT.MOD
:root
   order TX TY TZ RX RY RZ
   axis XYZ
   position 0 0 0  
   orientation 0 0 0 
:bonedata
  begin
     id 1 
     name lhipjoint
     direction 0.702568 -0.596508 0.388042 
     length 2.56661 
     axis 0 0 0  XYZ
  end
  begin
     id 2 
     name lfemur
     direction 0.34202 -0.939693 0  
     length 6.58374  
     axis 0 0 20  XYZ
    dof rx ry rz
    limits (-160.0 20.0)
           (-70.0 70.0)
           (-60.0 70.0)
  end
  begin
     id 3 
     name ltibia
     direction 0.34202 -0.939693 0   
     length 6.62538   
     axis 0 0 20   XYZ
    dof rx
    limits (-10.0 170.0)
  end
  begin
     id 4 
     name lfoot
     direction 0.10455 -0.287249 0.952133   
     length 2.26699   
     axis -90 7.62852e-016 20   XYZ
    dof rx rz
    limits (-45.0 90.0)
           (-70.0 20.0)
  end
  begin
     id 5 
     name ltoes
     direction 1.53572e-011 -4.22322e-011 1   
     length 1.12949   
     axis -90 7.62852e-016 20   XYZ
    dof rx
    limits (-90.0 20.0)
  end
  begin
     id 6 
     name rhipjoint
     direction -0.728055 -0.574632 0.373811   
     length 2.66432  
     axis 0 0 0  XYZ 
  end
  begin
     id 7 
     name rfemur
     direction -0.34202 -0.939693 0   
     length 6.66732   
     axis 0 0 -20   XYZ
    dof rx ry rz
    limits (-160.0 20.0)
           (-70.0 70.0)
           (-70.0 60.0)
  end
  begin
     id 8 
     name rtibia
     direction -0.34202 -0.939693 0   
     length 6.59288   
     axis 0 0 -20   XYZ
    dof rx
    limits (-10.0 170.0)
 end
 begin
     id 9 
     name rfoot
     direction -0.119193 -0.327479 0.93731   
     length 2.38061  
     axis -90 -7.62852e-016 -20   XYZ
    dof rx rz
    limits (-45.0 90.0)
           (-20.0 70.0)
  end
  begin
     id 10 
     name rtoes
     direction -1.53547e-011 -4.21827e-011 1   
     length 1.17899   
     axis -90 -7.62852e-016 -20   XYZ
    dof rx
    limits (-90.0 20.0)
  end
  begin
     id 11 
     name lowerback
     direction -0.000416114 0.999912 -0.0132284   
     length 2.12109   
     axis 0 0 0   XYZ
    dof rx ry rz
    limits (-20.0 45.0)
           (-30.0 30.0)
           (-30.0 30.0)
  end
  begin
     id 12 
     name upperback
     direction -0.00136371 0.99809 0.0617608   
     length 2.10067   
     axis 0 0 0   XYZ
    dof rx ry rz
    limits (-20.0 45.0)
           (-30.0 30.0)
           (-30.0 30.0)
  end
  begin
     id 13 
     name thorax
     direction -3.43026e-005 0.997776 0.0666515   
     length 2.10618   
     axis 0 0 0   XYZ
    dof rx ry rz
    limits (-20.0 45.0)
           (-30.0 30.0)
           (-30.0 30.0)
  end
  begin
     id 14 
     name lowerneck
     direction 0.0398646 0.998418 0.0396592   
     length 1.83817   
     axis 0 0 0   XYZ
    dof rx ry rz
    limits (-20.0 45.0)
           (-30.0 30.0)
           (-30.0 30.0)
  end
  begin
     id 15 
     name upperneck
     direction -0.0367268 0.961527 -0.272244   
     length 1.81975   
     axis 0 0 0   XYZ
    dof rx ry rz
    limits (-20.0 45.0)
           (-30.0 30.0)
           (-30.0 30.0)
  end
  begin
     id 16
     name head
     direction -0.0182665 0.99536 -0.0944669  
     length 1.86026  
     axis 0 0 0   XYZ
    dof rx ry rz
    limits (-20.0 45.0)
           (-30.0 30.0)
           (-30.0 30.0)
  end
  begin
     id 17 
     name lclavicle
     direction 0.924239 0.361045 0.124212  
     length 3.26878  
     axis 0 0 0   XYZ
    dof ry rz
    limits (-20.0 10.0)
           (0.0 20.0)
  end
  begin
     id 18 
     name lhumerus
     direction 1 -4.48968e-011 -2.56583e-027   
     length 4.58538   
     axis 180 -30 -90   XYZ
    dof rx ry rz
    limits (-60.0 90.0)
           (-90.0 90.0)
           (-90.0 90.0)
  end
  begin
     id 19
     name lradius
     direction 1 -4.4898e-011 -5.50375e-027   
     length 2.68935   
     axis 180 -30 -90   XYZ
    dof rx
    limits (-10.0 170.0)
  end
  begin
     id 20
     name lwrist
     direction 1 -4.48939e-011 -1.48955e-026   
     length 1.34468   
     axis 9.0955e-015 90 90   XYZ
    dof ry
    limits (-180.0 0.0)
 end
  begin
     id 21 
     name lhand
     direction 1 -4.48936e-011 -2.97907e-026   
     length 0.585058   
     axis 1.90115e-014 90 90   XYZ
    dof rx rz
    limits (-90.0 90.0)
           (-45.0 45.0)
  end
  begin
     id 22 
     name lfingers
     direction 1 -4.49082e-011 -5.96235e-026   
     length 0.471689   
     axis 3.80223e-014 90 90   XYZ
    dof rx
    limits (0.0 90.0)
  end
  begin
     id 23
     name lthumb
     direction 0.707107 -6.3489e-011 0.707107   
     length 0.677253   
     axis -90 45 -3.84942e-014   XYZ
    dof rx rz
    limits (-45.0 45.0)
           (-45.0 45.0)
  end
  begin
     id 24 
     name rclavicle
     direction -0.923098 0.371783 0.0983239   
     length 3.19656  
     axis 0 0 0   XYZ 
    dof ry rz
    limits (-10.0 20.0)
           (-20.0 0.0)
  end
  begin
     id 25 
     name rhumerus
     direction -1 -4.48976e-011 -2.5492e-027  
     length 4.4745   
     axis 180 30 90   XYZ
    dof rx ry rz
    limits (-90.0 60.0)
           (-90.0 90.0)
           (-90.0 90.0)
  end
  begin
     id 26 
     name rradius
     direction -1 -4.48941e-011 -4.36555e-027   
     length 2.93896   
     axis 180 30 90   XYZ
    dof rx
    limits (-10.0 170.0)
  end
  begin
     id 27 
     name rwrist
     direction -1 -4.49044e-011 -1.49032e-026   
     length 1.46948   
     axis 9.0955e-015 -90 -90   XYZ
    dof ry
    limits (-180.0 0.0)
  end
  begin
     id 28
     name rhand
     direction -1 -4.48826e-011 -2.97749e-026   
     length 0.405092   
     axis 1.90115e-014 -90 -90   XYZ
    dof rx rz
    limits (-90.0 90.0)
           (-45.0 45.0)
  end
  begin
     id 29
     name rfingers
     direction -1 -4.49209e-011 -5.96602e-026   
     length 0.326596   
     axis 3.80223e-014 -90 -90   XYZ
    dof rx
    limits (0.0 90.0)
  end
  begin
     id 30
     name rthumb
     direction -0.707107 -6.34776e-011 0.707107   
     length 0.468928   
     axis -90 -45 3.84942e-014   XYZ
    dof rx rz
    limits (-45.0 45.0)
           (-45.0 45.0)
  end
:hierarchy
  begin
    root lhipjoint rhipjoint lowerback
    lhipjoint lfemur
    lfemur ltibia
    ltibia lfoot
    lfoot ltoes
    rhipjoint rfemur
    rfemur rtibia
    rtibia rfoot
    rfoot rtoes
    lowerback upperback
    upperback thorax
    thorax lowerneck lclavicle rclavicle
    lowerneck upperneck
    upperneck head
    lclavicle lhumerus
    lhumerus lradius
    lradius lwrist
    lwrist lhand lthumb
    lhand lfingers
    rclavicle rhumerus
    rhumerus rradius
    rradius rwrist
    rwrist rhand rthumb
    rhand rfingers
  end

#!OML:ASF H:\Punching\Project 1\Capture day 1\Session 1\female.ASF
:FULLY-SPECIFIED
:DEGREES
328
root 0.431402 14.4067 -1.69954 18.2742 21.8325 6.29845
lowerback -2.70067 -2.28341 -2.11985
upperback -6.59475 -3.03381 0.132534
thorax -5.19432 -1.39185 1.37383
lowerneck -15.2031 -1.13555 3.76206
upperneck 32.1249 -1.70759 -2.93459
head 13.2524 -0.63266 -2.0621
rclavicle 3.75455e-014 1.19271e-014
rhumerus 10.5589 17.1406 -65.4411
rradius 132.935
rwrist -14.7338
rhand -30.7832 10.2906
rfingers 7.12502
rthumb -4.07382 -19.6502
lclavicle 3.75455e-014 1.19271e-014
lhumerus 2.04421 -25.1626 72.3337
lradius 138.784
lwrist -0.804386
lhand -26.0973 2.12645
lfingers 7.12502
lthumb 0.451741 32.1057
rfemur -56.8767 -9.7522 5.41769
rtibia 49.751
rfoot -3.21034 -11.7545
rtoes -4.76376
lfemur 0.291122 -8.12008 -22.33
ltibia 20.5839
lfoot -34.9098 31.2687
ltoes -6.43347
329
root 0.42988 14.4024 -1.70027 18.2689 21.6246 6.35523
lowerback -2.72642 -2.29183 -2.28233
upperback -6.60599 -3.04734 0.0903605
thorax -5.18576 -1.39178 1.41993
lowerneck -15.2038 -1.11145 3.80912
upperneck 32.1656 -1.6969 -2.90742
head 13.2706 -0.61837 -2.05915
rclavicle -1.10077e-014 -2.06736e-014
rhumerus 10.5016 17.2152 -65.4802
rradius 132.975
rwrist -14.7835
rhand -30.7779 10.3047
rfingers 7.12502
rthumb -4.06866 -19.6362
lclavicle -1.10077e-014 -2.06736e-014
lhumerus 2.0053 -25.1512 72.2911
lradius 138.762
lwrist -0.844995
lhand -26.0974 2.0585
lfingers 7.12502
lthumb 0.451694 32.0378
rfemur -56.9985 -9.691 5.38562
rtibia 49.8084
rfoot -3.14072 -11.6057
rtoes -4.81004
lfemur 0.378164 -8.04853 -22.4654
ltibia 20.5248
lfoot -34.9524 31.3483
ltoes -6.43407
330
root 0.428888 14.3978 -1.70163 18.2536 21.4114 6.43181
lowerback -2.7233 -2.30029 -2.44722
upperback -6.61416 -3.06212 0.0404013
thorax -5.19062 -1.39227 1.46052
lowerneck -15.2088 -1.08422 3.85577
upperneck 32.2136 -1.68114 -2.88183
head 13.293 -0.60197 -2.05622
rclavicle 3.24764e-014 7.95139e-015
rhumerus 10.4317 17.281 -65.5212
rradius 133.012
rwrist -14.834
rhand -30.7734 10.3055
rfingers 7.12502
rthumb -4.06433 -19.6355
lclavicle 3.24764e-014 7.95139e-015
lhumerus 1.96768 -25.1196 72.2384
lradius 138.734
lwrist -0.866191
lhand -26.0926 2.04477
lfingers 7.12502
lthumb 0.456334 32.024
rfemur -57.1116 -9.64821 5.33787
rtibia 49.8737
rfoot -3.0717 -11.4354
rtoes -4.87479
lfemur 0.486547 -7.97582 -22.626
ltibia 20.4564
lfoot -34.9888 31.4217
ltoes -6.43918
331
root 0.428438 14.3931 -1.70348 18.2277 21.1953 6.51261
lowerback -2.69645 -2.30818 -2.60019
upperback -6.62093 -3.07703 -0.01179
thorax -5.20817 -1.39327 1.4932
lowerneck -15.2182 -1.05165 3.90416
upperneck 32.2712 -1.65594 -2.86297
head 13.3208 -0.58193 -2.05508
rclavicle 4.77083e-014 1.74931e-014
rhumerus 10.3603 17.3373 -65.559
rradius 133.045
rwrist -14.8761
rhand -30.768 10.2409
rfingers 7.12502
rthumb -4.05915 -19.7002
lclavicle 4.77083e-014 1.74931e-014
lhumerus 1.92338 -25.0704 72.1824
lradius 138.703
lwrist -0.874751
lhand -26.0954 2.06691
lfingers 7.12502
lthumb 0.453633 32.0462
rfemur -57.2151 -9.61498 5.28892
rtibia 49.9376
rfoot -2.99984 -11.254
rtoes -4.98321
lfemur 0.609868 -7.90509 -22.7957
ltibia 20.3817
lfoot -35.025 31.4926
ltoes -6.44024
332
root 0.428691 14.3885 -1.70549 18.1925 20.9812 6.58185
lowerback -2.65576 -2.31482 -2.7244
upperback -6.62616 -3.09065 -0.062017
thorax -5.23324 -1.39489 1.51248
lowerneck -15.2359 -1.01511 3.95529
upperneck 32.3362 -1.62349 -2.85184
head 13.3539 -0.559282 -2.05665
rclavicle -4.84538e-016 -1.23246e-014
rhumerus 10.2806 17.3811 -65.5974
rradius 133.066
rwrist -14.8959
rhand -30.7596 10.1768
rfingers 7.12502
rthumb -4.05103 -19.7644
lclavicle -4.84538e-016 -1.23246e-014
lhumerus 1.87218 -25.0055 72.1286
lradius 138.668
lwrist -0.870797
lhand -26.1051 2.10288
lfingers 7.12502
lthumb 0.444267 32.0822
rfemur -57.3095 -9.58958 5.25684
rtibia 49.9931
rfoot -2.92714 -11.0671
rtoes -5.11918
lfemur 0.74122 -7.83688 -22.9574
ltibia 20.3038
lfoot -35.0649 31.5633
ltoes -6.43656
333
root 0.429594 14.3843 -1.70736 18.1508 20.7715 6.62691
lowerback -2.60949 -2.32062 -2.80934
upperback -6.63232 -3.10297 -0.105569
thorax -5.26401 -1.39752 1.51709
lowerneck -15.2589 -0.974508 4.00934
upperneck 32.4049 -1.58307 -2.85006
head 13.3899 -0.533989 -2.06135
rclavicle -3.07122e-014 -2.18663e-014
rhumerus 10.1959 17.414 -65.635
rradius 133.075
rwrist -14.8979
rhand -30.7524 10.1177
rfingers 7.12502
rthumb -4.04402 -19.8236
lclavicle -3.07122e-014 -2.18663e-014
lhumerus 1.81104 -24.9323 72.0825
lradius 138.629
lwrist -0.867409
lhand -26.1332 2.14486
lfingers 7.12502
lthumb 0.417061 32.1242
rfemur -57.3973 -9.56402 5.25343
rtibia 50.0351
rfoot -2.85605 -10.8859
rtoes -5.28348
lfemur 0.871181 -7.77393 -23.0968
ltibia 20.2279
lfoot -35.1153 31.6354
ltoes -6.41458
